<svg xmlns="http://www.w3.org/2000/svg" width="140.01401mm" height="109.695mm" viewBox="0 0 140.01401 109.695"><g fill="#fff" color="#000" font-family="sans-serif" font-weight="400"><path d="m116.15479 649.83461-.005.005 2.91627 2.92052 43.76503 43.76506 46.66854-46.68558-.005-.005h-11.66929l.005.005-34.99925 35.01629-35.01631-35.01629.005-.005z" overflow="visible" style="line-height:normal;font-variant-ligatures:normal;font-variant-position:normal;font-variant-caps:normal;font-variant-numeric:normal;font-variant-alternates:normal;font-feature-settings:normal;text-indent:0;text-align:start;text-decoration-line:none;text-decoration-style:solid;text-decoration-color:#000;text-transform:none;text-orientation:mixed;white-space:normal;shape-padding:0;isolation:auto;mix-blend-mode:normal;solid-color:#000;solid-opacity:1" transform="translate(-92.81625 -610.15944)"/><path d="m92.816252 649.83461 2.91626 2.92052 11.669258 11.66925 5.83251-5.83676-8.74874-8.75301zm128.366148 0-29.17101 29.18382 5.81972 5.82394 34.99924-35.00776zm-102.1156 14.58551-5.83678 5.8325 11.67351 11.67352 5.82823-5.83676zm17.50603 17.50174-5.83679 5.83677 32.09579 32.09581 17.50602-17.5103-3.6794-3.68369-.009.008-2.15312-2.15309-11.66499 11.66925zm49.58901 2.92904-5.82399 5.824 5.82825 5.83676 5.83675-5.84102-2.9077-2.90773-.008.008z" overflow="visible" style="line-height:normal;font-variant-ligatures:normal;font-variant-position:normal;font-variant-caps:normal;font-variant-numeric:normal;font-variant-alternates:normal;font-feature-settings:normal;text-indent:0;text-align:start;text-decoration-line:none;text-decoration-style:solid;text-decoration-color:#000;text-transform:none;text-orientation:mixed;white-space:normal;shape-padding:0;isolation:auto;mix-blend-mode:normal;solid-color:#000;solid-opacity:1" transform="translate(-92.81625 -610.15944)"/><path d="m264.60156 0-31.22461 31.205078 19.01758 18.757813 12.20703-12.197266 31.5586 31.535156-18.88477 18.917969h37.77344l18.89844-18.917969L264.60156 0zm-50.10937 50.078125L195.5918 68.966797l-.33985.339844h.67969l18.5625 18.578125h-.01953l18.9043 18.919924h.0332l30.8418 30.84179v-.01757l12.68164 12.66797 18.88086 18.91796 18.87109 18.40821 18.57812-18.74805-18.56445-18.57812-18.88086-18.91797h-.04101l-43.51563-43.500004-18.88476-18.916015-18.88672-18.884766zm-.34571 99.878905L195.24805 168.875l69.3457 69.30469 31.08203-31.36719-18.74219-18.73047-12.33984 12.32813-31.55859-31.53516 18.88476-18.91797h-37.77344z" overflow="visible" style="line-height:normal;font-variant-ligatures:normal;font-variant-position:normal;font-variant-caps:normal;font-variant-numeric:normal;font-variant-alternates:normal;font-feature-settings:normal;text-indent:0;text-align:start;text-decoration-line:none;text-decoration-style:solid;text-decoration-color:#000;text-transform:none;text-orientation:mixed;white-space:normal;shape-padding:0;isolation:auto;mix-blend-mode:normal;solid-color:#000;solid-opacity:1" transform="scale(.26458333)"/></g></svg>